<?xml version="1.0" encoding="UTF-8" standalone="no"?>
<svg
   viewBox="0 0 512 511.99999"
   version="1.1"
   id="svg5425"
   sodipodi:docname="logo2.svg"
   inkscape:version="1.2.2 (1:1.2.2+202212051552+b0a8486541)"
   xml:space="preserve"
   width="512"
   height="512"
   inkscape:export-filename="../favicons/favicon-512x512.png"
   inkscape:export-xdpi="96"
   inkscape:export-ydpi="96"
   xmlns:inkscape="http://www.inkscape.org/namespaces/inkscape"
   xmlns:sodipodi="http://sodipodi.sourceforge.net/DTD/sodipodi-0.dtd"
   xmlns="http://www.w3.org/2000/svg"
   xmlns:svg="http://www.w3.org/2000/svg"><g
     id="g259"
     transform="matrix(63.979936,0,0,63.979936,-102.69744,-101.61311)"><text
       xml:space="preserve"
       style="font-size:26.6667px;font-family:'Bella Script CYR';-inkscape-font-specification:'Bella Script CYR';fill:#47a039"
       x="15.630708"
       y="2.3435705"
       id="text474"><tspan
         sodipodi:role="line"
         id="tspan472"
         x="15.630708"
         y="2.3435705" /></text><path
       style="fill:#b21751;fill-opacity:1;stroke-width:0.0866217;stroke-dasharray:none"
       d="M 2.8907679,2.8738198 C 3.6161527,2.1484497 4.5805778,1.7489801 5.6064056,1.7489801 c 1.0258269,0 1.990252,0.3994696 2.7156368,1.1248397 0.7253856,0.7253697 1.1248398,1.6898096 1.1248398,2.7156374 0,1.0258277 -0.3994698,1.9902676 -1.1248398,2.7156376 -0.7253848,0.7253701 -1.6898099,1.1248393 -2.7156368,1.1248393 -1.0258278,0 -1.9902529,-0.3994692 -2.7156377,-1.1248393 -0.72537,-0.72537 -1.1248398,-1.6898099 -1.1248398,-2.7156376 0,-1.0258278 0.3994698,-1.9902521 1.1248398,-2.7156374 z M 2.430676,7.2843829 3.0545886,6.9241727 C 2.8624296,6.5582775 2.7467351,6.146296 2.7287325,5.7094724 H 2.0081631 c 0.01871,0.5677748 0.1694311,1.1026517 0.4225129,1.5749105 z M 5.7264199,8.4671293 V 9.1876988 C 6.2941957,9.1689885 6.8290716,9.0182832 7.3013305,8.7652015 L 6.9411064,8.1412741 C 6.5752259,8.3334184 6.1632445,8.4491276 5.7264199,8.4671293 Z m -0.2400295,0 C 5.0495658,8.4491294 4.6375844,8.3334184 4.2716892,8.1412741 L 3.9114642,8.7652015 C 4.3837231,9.0182832 4.9186146,9.1690067 5.4863756,9.1876988 Z M 5.6064056,8.229785 c 1.4558854,0 2.6403279,-1.1844424 2.6403279,-2.6403278 0,-1.4558863 -1.1844425,-2.640328 -2.6403279,-2.640328 -1.4558863,0 -2.6403288,1.1844417 -2.6403288,2.640328 0,1.4558854 1.1844425,2.6403278 2.6403288,2.6403278 z M 9.2046472,5.7094724 H 8.4840778 C 8.4660778,6.146296 8.3503659,6.5582775 8.1582226,6.9241727 L 8.7821499,7.2843976 C 9.0352161,6.8121241 9.1859396,6.2772472 9.2046472,5.7094724 Z M 8.7821344,3.8945314 8.1582226,4.2547416 C 8.3503659,4.6206369 8.4660752,5.0326183 8.4840778,5.4694419 H 9.2046472 C 9.185937,4.9016671 9.0352161,4.3667903 8.7821344,3.8945314 Z M 5.4863904,2.7117847 V 1.9912152 C 4.9186146,2.0099072 4.3837387,2.1606312 3.9114798,2.4137127 L 4.2716892,3.0376402 C 4.6375844,2.8454963 5.0495658,2.7297869 5.4863904,2.7117847 Z m 0.2400295,0 c 0.4368246,0.018003 0.848806,0.1337116 1.2147012,0.3258555 L 7.3013461,2.4137127 C 6.8290872,2.1606312 6.2941957,2.0099075 5.7264347,1.9912152 Z M 2.7287325,5.4694419 c 0.018,-0.4368236 0.1337119,-0.848805 0.3258561,-1.2147003 L 2.4306604,3.8945167 C 2.1775795,4.3667755 2.0268552,4.9016671 2.0081631,5.4694272 Z M 2.551081,3.6868905 3.1748732,4.0470401 C 3.4024215,3.6895914 3.7065242,3.385473 4.0639886,3.1579248 L 3.703839,2.5341326 C 3.2375509,2.8255438 2.8424919,3.2206025 2.551081,3.6868905 Z M 7.5089713,2.5341326 7.1488217,3.1579248 C 7.5062713,3.385473 7.8103888,3.6895758 8.0379371,4.0470401 L 8.6617293,3.6868905 C 8.3703184,3.2206025 7.9752594,2.8255438 7.5089713,2.5341326 Z M 8.6617293,7.4920238 8.0379371,7.1318733 C 7.8103888,7.4893229 7.5062861,7.7934413 7.1488217,8.0209895 l 0.3601496,0.6237923 c 0.4662881,-0.291411 0.8613471,-0.68647 1.152758,-1.152758 z M 3.703839,8.6447818 4.0639886,8.0209895 C 3.706539,7.7934413 3.4024215,7.4893385 3.1748732,7.1318733 L 2.551081,7.4920238 c 0.2914109,0.466288 0.6864699,0.861347 1.152758,1.152758 z"
       id="path11679" /><path
       style="fill:#b21751;fill-opacity:1;stroke:none;stroke-width:0.00095704;stroke-dasharray:none;stroke-opacity:1"
       d="M 2.8658183,3.8652433 C 2.6967665,3.7676471 2.5584516,3.686044 2.5584516,3.683903 c 0,-0.00595 0.074599,-0.1186226 0.1244329,-0.1879455 0.2121946,-0.2951807 0.476784,-0.5652631 0.7688793,-0.7848404 0.079051,-0.059428 0.2401127,-0.1693814 0.248107,-0.1693814 0.00277,0 0.084811,0.1382693 0.1824019,0.307265 l 0.1774316,0.3072651 -0.06119,0.041597 C 3.684848,3.4110964 3.4280182,3.6678297 3.215206,3.9808762 l -0.04202,0.061815 z"
       id="path13062" /><path
       style="fill:#b21751;fill-opacity:1;stroke:none;stroke-width:0.00270693;stroke-dasharray:none;stroke-opacity:1"
       d="M 2.394229,7.197056 C 2.1889174,6.7903351 2.0612656,6.3238891 2.0202529,5.8305271 L 2.010967,5.7188664 h 0.3517309 0.3517308 l 0.00814,0.030453 c 0.0045,0.016749 0.00823,0.054088 0.00832,0.082977 7.761e-4,0.2207092 0.1220075,0.6819636 0.2555236,0.9722048 L 3.0406529,6.922408 2.8486438,7.0331982 C 2.7430381,7.0941331 2.6064114,7.1734198 2.5450279,7.2093916 l -0.111606,0.065403 z"
       id="path13135" /><path
       style="fill:#b21751;fill-opacity:1;stroke:none;stroke-width:0.00270693;stroke-dasharray:none;stroke-opacity:1"
       d="M 5.3433095,9.1742683 C 4.892312,9.139195 4.3945361,9.0015337 3.9992467,8.8025641 l -0.078575,-0.039551 0.026212,-0.043415 c 0.014414,-0.023878 0.088832,-0.153045 0.1653721,-0.2870379 0.076539,-0.1339929 0.1457852,-0.2508531 0.1538757,-0.2596893 0.0112,-0.012234 0.038858,-0.00482 0.1159691,0.03106 0.3182117,0.148097 0.7667483,0.2624659 1.0293498,0.2624659 h 0.06721 v 0.3586688 0.358668 l -0.037221,-0.00236 c -0.020469,-0.0013 -0.064628,-0.0045 -0.098126,-0.0071 z"
       id="path13137" /><path
       style="fill:#b21751;fill-opacity:1;stroke:none;stroke-width:0.00270693;stroke-dasharray:none;stroke-opacity:1"
       d="M 7.4569697,8.5374848 C 7.4277592,8.4872211 7.3488338,8.3507114 7.2815807,8.23413 L 7.1593012,8.0221639 7.2512718,7.9610078 C 7.5116228,7.7878856 7.8316588,7.4647086 7.994233,7.2107543 l 0.045502,-0.071083 0.042471,0.026044 c 0.023362,0.014324 0.1551464,0.091028 0.292861,0.1704527 0.1377146,0.079425 0.2552195,0.149046 0.2611219,0.1547134 0.00589,0.00567 -0.020192,0.056074 -0.057984,0.1120161 C 8.3789762,7.8977982 8.0496778,8.242218 7.7559462,8.4629149 7.6648072,8.5313928 7.5722017,8.5967471 7.5501574,8.6081469 l -0.04008,0.020727 z"
       id="path13139" /><path
       style="fill:#b21751;fill-opacity:1;stroke:none;stroke-width:0.00270693;stroke-dasharray:none;stroke-opacity:1"
       d="M 8.4792859,5.3279543 C 8.4627844,5.057086 8.3651912,4.6848051 8.2358252,4.3992391 8.2021034,4.324799 8.178525,4.2597077 8.1834278,4.2545927 8.1883652,4.2494821 8.2989326,4.1835413 8.4292038,4.1080679 8.559475,4.0325944 8.6917775,3.9559204 8.72321,3.9376816 l 0.057153,-0.033161 0.039352,0.078176 C 9.0264983,4.3935159 9.1527537,4.8605467 9.193019,5.363582 l 0.00788,0.098126 H 8.8441841 8.4874664 Z"
       id="path13141" /><path
       style="fill:#b21751;fill-opacity:1;stroke:none;stroke-width:0.00270693;stroke-dasharray:none;stroke-opacity:1"
       d="M 6.8185852,2.9685574 C 6.5274376,2.8338468 6.067168,2.7141765 5.8401993,2.7141765 c -0.1117819,0 -0.1043852,0.026096 -0.1043852,-0.368292 V 1.9940233 l 0.1116605,0.00928 c 0.3132189,0.026038 0.6029667,0.083694 0.883135,0.1757346 0.167872,0.055148 0.4966394,0.1945253 0.5383538,0.2282273 0.016631,0.013439 -0.00684,0.061546 -0.1510509,0.3092653 C 7.0240005,2.8778757 6.9441191,3.012562 6.940397,3.0158355 6.936677,3.0191055 6.881858,2.9978335 6.8185852,2.9685574 Z"
       id="path13143" /><path
       d="m 4.4022783,4.8898449 c 0.064532,0.573616 0.5879564,1.0683598 1.2117638,1.0683598 0.6739988,0 1.2261042,-0.573616 1.2261042,-1.1974234 v -0.01434 C 6.1374667,4.6532283 5.2555321,5.1623125 4.4022783,4.8898449"
       fill="#961623"
       id="path14174"
       style="fill:#b21751;fill-opacity:1;stroke-width:0.071702" /><path
       d="m 7.1914861,4.7679515 c 0,-0.8174028 -0.4087014,-1.3193168 -0.4087014,-1.3193168 H 4.4452995 c 0,0 -0.4087014,0.5090842 -0.4087014,1.3193168 0,0.7743816 0.6668286,1.4985718 1.4985718,1.541593 -0.00717,0.4517226 -0.050191,0.9177856 -0.1577444,1.0827002 -0.1577444,0.2294464 -0.7026796,0.1147232 -0.7026796,0.35851 h 1.8785924 c 0,-0.2437868 -0.5449352,-0.1290636 -0.7026796,-0.35851 C 5.7431057,7.2273301 5.7000845,6.7612671 5.6929143,6.3095445 6.5246575,6.2665233 7.1914861,5.5495033 7.1914861,4.7679515 m -1.577444,1.3551678 c -0.7026796,0 -1.2834658,-0.5592756 -1.3551678,-1.1974234 -0.00717,-0.043021 -0.00717,-0.093213 -0.00717,-0.1362338 0,-0.7098498 0.3513398,-1.1400618 0.3513398,-1.1400618 h 2.0219964 c 0,0 0.3441696,0.430212 0.3513398,1.1257214 v 0.01434 c 0,0.6883392 -0.609467,1.3336572 -1.362338,1.3336572"
       opacity="0.8"
       fill="#a1b8c7"
       id="path14176"
       style="opacity:1;fill:#b21751;fill-opacity:1;stroke-width:0.071702" /></g><defs
     id="defs5429" /><sodipodi:namedview
     id="namedview5427"
     pagecolor="#ffffff"
     bordercolor="#000000"
     borderopacity="0.25"
     inkscape:showpageshadow="2"
     inkscape:pageopacity="0.0"
     inkscape:pagecheckerboard="0"
     inkscape:deskcolor="#d1d1d1"
     showgrid="false"
     inkscape:zoom="0.70710679"
     inkscape:cx="50.204581"
     inkscape:cy="275.06453"
     inkscape:window-width="1526"
     inkscape:window-height="836"
     inkscape:window-x="0"
     inkscape:window-y="0"
     inkscape:window-maximized="1"
     inkscape:current-layer="svg5425" /></svg>
