<?xml version="1.0" encoding="UTF-8" standalone="no"?>
<svg
   viewBox="0 0 42.333 10.583"
   version="1.1"
   id="svg5425"
   sodipodi:docname="logo.svg"
   inkscape:version="1.2.2 (1:1.2.2+202212051552+b0a8486541)"
   xml:space="preserve"
   xmlns:inkscape="http://www.inkscape.org/namespaces/inkscape"
   xmlns:sodipodi="http://sodipodi.sourceforge.net/DTD/sodipodi-0.dtd"
   xmlns="http://www.w3.org/2000/svg"
   xmlns:svg="http://www.w3.org/2000/svg"><defs
     id="defs5429" /><sodipodi:namedview
     id="namedview5427"
     pagecolor="#ffffff"
     bordercolor="#000000"
     borderopacity="0.25"
     inkscape:showpageshadow="2"
     inkscape:pageopacity="0.0"
     inkscape:pagecheckerboard="0"
     inkscape:deskcolor="#d1d1d1"
     showgrid="false"
     inkscape:zoom="16"
     inkscape:cx="20.21875"
     inkscape:cy="-3.03125"
     inkscape:window-width="1526"
     inkscape:window-height="836"
     inkscape:window-x="0"
     inkscape:window-y="0"
     inkscape:window-maximized="1"
     inkscape:current-layer="svg5425" /><text
     xml:space="preserve"
     style="font-size:26.6667px;font-family:'Bella Script CYR';-inkscape-font-specification:'Bella Script CYR';fill:#47a039"
     x="15.630708"
     y="2.3435705"
     id="text474"><tspan
       sodipodi:role="line"
       id="tspan472" /></text><g
     aria-label="играй и дегустируй"
     id="text5999"
     style="font-size:2.10265px;font-family:Cinzel;display:block;fill:#8c94a8;stroke-width:0.0730085;fill-opacity:1"><path
       d="M 14.337316,7.6433529 V 8.7932396 H 14.149433 V 7.8702502 l -0.55441,0.9229894 H 13.352726 V 7.6433529 h 0.187883 v 0.920936 l 0.553383,-0.920936 z"
       id="path20392"
       style="fill:#8c94a8;fill-opacity:1" /><path
       d="M 14.719243,8.7932396 V 7.6433529 h 0.81108 v 0.1509226 h -0.621144 v 0.9989641 z"
       id="path20394"
       style="fill:#8c94a8;fill-opacity:1" /><path
       d="M 16.013892,8.6207566 V 9.2306072 H 15.823955 V 7.6433529 h 0.189937 v 0.1745364 q 0.05955,-0.1026685 0.149896,-0.1519493 0.09137,-0.050308 0.217657,-0.050308 0.209443,0 0.339832,0.1663229 0.131416,0.1663229 0.131416,0.4373676 0,0.2710448 -0.131416,0.4373677 -0.130389,0.1663228 -0.339832,0.1663228 -0.126282,0 -0.217657,-0.049281 -0.09035,-0.050308 -0.149896,-0.1529754 z m 0.642704,-0.4014337 q 0,-0.2084169 -0.08624,-0.3264856 -0.08521,-0.1190954 -0.235111,-0.1190954 -0.149896,0 -0.236137,0.1190954 -0.08522,0.1180687 -0.08522,0.3264856 0,0.208417 0.08522,0.3275124 0.08624,0.1180687 0.236137,0.1180687 0.149896,0 0.235111,-0.1180687 0.08624,-0.1190954 0.08624,-0.3275124 z"
       id="path20396"
       style="fill:#8c94a8;fill-opacity:1" /><path
       d="m 17.688414,8.2152162 q -0.22895,0 -0.317245,0.052361 -0.08829,0.052361 -0.08829,0.1786431 0,0.1006151 0.06571,0.1601628 0.06673,0.058521 0.180696,0.058521 0.157083,0 0.251538,-0.1108819 0.09548,-0.1119086 0.09548,-0.2967118 v -0.042094 z m 0.376794,-0.078028 v 0.6560514 h -0.18891 V 8.6187032 q -0.06468,0.1047218 -0.16119,0.1550294 -0.09651,0.049281 -0.236137,0.049281 -0.17659,0 -0.281312,-0.098562 -0.103695,-0.099588 -0.103695,-0.2659113 0,-0.1940433 0.129362,-0.2926051 0.130389,-0.098562 0.388087,-0.098562 h 0.264885 v -0.01848 q 0,-0.1303889 -0.08624,-0.2012302 -0.08522,-0.071868 -0.240244,-0.071868 -0.09856,0 -0.19199,0.023614 -0.09343,0.023614 -0.17967,0.070841 V 7.6957138 q 0.103695,-0.040041 0.20123,-0.059548 0.09754,-0.020534 0.189937,-0.020534 0.249484,0 0.372687,0.1293623 0.123202,0.1293622 0.123202,0.3921935 z"
       id="path20398"
       style="fill:#8c94a8;fill-opacity:1" /><path
       d="M 19.431725,7.6433529 V 8.7932396 H 19.243841 V 7.8702502 L 18.689432,8.7932396 H 18.447134 V 7.6433529 h 0.187883 v 0.920936 L 19.1884,7.6433529 Z M 18.61859,7.1957185 h 0.121149 q 0.01129,0.077001 0.06058,0.1160153 0.05031,0.037987 0.139629,0.037987 0.0883,0 0.137575,-0.037987 0.04928,-0.037987 0.06263,-0.1160153 h 0.121149 q -0.01027,0.1468158 -0.09137,0.2207371 -0.08111,0.073921 -0.229977,0.073921 -0.14887,0 -0.229978,-0.073921 -0.08111,-0.073921 -0.09137,-0.2207371 z"
       id="path20400"
       style="fill:#8c94a8;fill-opacity:1" /><path
       d="M 21.466613,7.6433529 V 8.7932396 H 21.27873 V 7.8702502 L 20.72432,8.7932396 H 20.482023 V 7.6433529 h 0.187883 v 0.920936 l 0.553383,-0.920936 z"
       id="path20402"
       style="fill:#8c94a8;fill-opacity:1" /><path
       d="m 22.78077,8.642317 h 0.54825 V 7.7942755 h -0.397327 v 0.1437359 q 0,0.422994 -0.121149,0.6488646 z m -0.274125,0 Q 22.600073,8.6012496 22.641141,8.5139814 22.741756,8.297351 22.741756,7.86101 V 7.6433529 h 0.7772 V 8.642317 h 0.150923 V 9.0837913 H 23.518956 V 8.7932396 H 22.586727 V 9.0837913 H 22.435804 V 8.642317 Z"
       id="path20404"
       style="fill:#8c94a8;fill-opacity:1" /><path
       d="m 24.961448,8.1710688 v 0.092402 h -0.868576 q 0.01232,0.19507 0.117042,0.2977385 0.105749,0.1016418 0.293632,0.1016418 0.108829,0 0.210471,-0.026694 0.102668,-0.026694 0.203283,-0.080081 v 0.1786431 q -0.101642,0.043121 -0.208417,0.065708 -0.106775,0.022587 -0.21663,0.022587 -0.275152,0 -0.436341,-0.1601627 -0.160163,-0.1601628 -0.160163,-0.4332609 0,-0.2823383 0.151949,-0.4476345 0.152976,-0.1663229 0.411701,-0.1663229 0.232031,0 0.366526,0.149896 0.135523,0.1488692 0.135523,0.4055396 z m -0.18891,-0.055441 q -0.0021,-0.1550294 -0.08727,-0.247431 -0.08419,-0.092402 -0.223817,-0.092402 -0.158109,0 -0.253591,0.089322 -0.09445,0.089321 -0.108828,0.2515377 z"
       id="path20406"
       style="fill:#8c94a8;fill-opacity:1" /><path
       d="M 25.264319,8.7932396 V 7.6433529 H 26.0754 v 0.1509226 h -0.621144 v 0.9989641 z"
       id="path20408"
       style="fill:#8c94a8;fill-opacity:1" /><path
       d="m 26.854653,8.9000148 q -0.08008,0.2053369 -0.156056,0.2679646 -0.07597,0.062628 -0.203283,0.062628 H 26.344391 V 9.0724978 h 0.110882 q 0.07803,0 0.121149,-0.036961 0.04312,-0.036961 0.09548,-0.1745363 l 0.03388,-0.086241 -0.465088,-1.1314064 h 0.200203 l 0.35934,0.8993757 0.35934,-0.8993757 h 0.200203 z"
       id="path20410"
       style="fill:#8c94a8;fill-opacity:1" /><path
       d="m 28.448068,7.6875003 v 0.1765898 q -0.08008,-0.044147 -0.16119,-0.065708 -0.08008,-0.022587 -0.162216,-0.022587 -0.183776,0 -0.285418,0.1170421 -0.101642,0.1160153 -0.101642,0.3264856 0,0.2104704 0.101642,0.3275124 0.101642,0.1160154 0.285418,0.1160154 0.08214,0 0.162216,-0.02156 0.08111,-0.022587 0.16119,-0.066734 V 8.749093 q -0.07906,0.036961 -0.16427,0.055441 -0.08419,0.01848 -0.179669,0.01848 -0.259752,0 -0.412728,-0.1632428 -0.152976,-0.1632428 -0.152976,-0.4404477 0,-0.2813115 0.154003,-0.442501 0.155029,-0.1611895 0.424021,-0.1611895 0.08727,0 0.170429,0.01848 0.08316,0.017454 0.16119,0.053387 z"
       id="path20412"
       style="fill:#8c94a8;fill-opacity:1" /><path
       d="m 28.640058,7.6433529 h 1.101632 v 0.1509226 h -0.457901 v 0.9989641 h -0.18583 V 7.7942755 h -0.457901 z"
       id="path20414"
       style="fill:#8c94a8;fill-opacity:1" /><path
       d="M 30.978845,7.6433529 V 8.7932396 H 30.790962 V 7.8702502 l -0.55441,0.9229894 H 29.994255 V 7.6433529 h 0.187883 v 0.920936 l 0.553383,-0.920936 z"
       id="path20416"
       style="fill:#8c94a8;fill-opacity:1" /><path
       d="M 31.550709,8.6207566 V 9.2306072 H 31.360773 V 7.6433529 h 0.189936 v 0.1745364 q 0.05955,-0.1026685 0.149896,-0.1519493 0.09137,-0.050308 0.217657,-0.050308 0.209444,0 0.339833,0.1663229 0.131416,0.1663229 0.131416,0.4373676 0,0.2710448 -0.131416,0.4373677 -0.130389,0.1663228 -0.339833,0.1663228 -0.126282,0 -0.217657,-0.049281 -0.09035,-0.050308 -0.149896,-0.1529754 z m 0.642705,-0.4014337 q 0,-0.2084169 -0.08624,-0.3264856 -0.08521,-0.1190954 -0.23511,-0.1190954 -0.149896,0 -0.236138,0.1190954 -0.08521,0.1180687 -0.08521,0.3264856 0,0.208417 0.08521,0.3275124 0.08624,0.1180687 0.236138,0.1180687 0.149896,0 0.23511,-0.1180687 0.08624,-0.1190954 0.08624,-0.3275124 z"
       id="path20418"
       style="fill:#8c94a8;fill-opacity:1" /><path
       d="m 33.181085,8.9000148 q -0.08008,0.2053369 -0.156057,0.2679646 -0.07597,0.062628 -0.203283,0.062628 H 32.670822 V 9.0724978 h 0.110882 q 0.07803,0 0.121149,-0.036961 0.04312,-0.036961 0.09548,-0.1745363 l 0.03388,-0.086241 -0.465088,-1.1314064 h 0.200204 l 0.359339,0.8993757 0.35934,-0.8993757 h 0.200203 z"
       id="path20420"
       style="fill:#8c94a8;fill-opacity:1" /><path
       d="M 34.924394,7.6433529 V 8.7932396 H 34.736511 V 7.8702502 l -0.55441,0.9229894 H 33.939804 V 7.6433529 h 0.187883 v 0.920936 L 34.68107,7.6433529 Z M 34.11126,7.1957185 h 0.121149 q 0.01129,0.077001 0.06057,0.1160153 0.05031,0.037987 0.139629,0.037987 0.0883,0 0.137576,-0.037987 0.04928,-0.037987 0.06263,-0.1160153 h 0.121148 q -0.01027,0.1468158 -0.09137,0.2207371 -0.08111,0.073921 -0.229978,0.073921 -0.148869,0 -0.229977,-0.073921 -0.08111,-0.073921 -0.09137,-0.2207371 z"
       id="path20422"
       style="fill:#8c94a8;fill-opacity:1" /></g><g
     aria-label="КАЗИНОВИН"
     id="text5997-3"
     style="font-size:4.84731px;font-family:Bungee;display:block;fill:#8a4885;stroke-width:0.0381099"><path
       d="m 10.784489,5.4503913 q -0.04847,0 -0.0824,-0.029084 -0.03393,-0.033931 -0.03393,-0.087251 V 2.178457 q 0,-0.05332 0.03393,-0.087252 0.03393,-0.033931 0.0824,-0.033931 h 0.441106 q 0.05332,0 0.0824,0.033931 0.03393,0.033931 0.03393,0.087252 v 1.250606 h 0.421716 l 0.790112,-1.2845372 q 0.02424,-0.038778 0.06302,-0.063015 0.04363,-0.024237 0.111488,-0.024237 h 0.479884 q 0.04847,0 0.07271,0.029084 0.02908,0.029084 0.02908,0.07271 0,0.024237 -0.01939,0.058168 L 12.374407,3.695665 13.3778,5.2855828 q 0.01454,0.014542 0.01454,0.05332 0,0.043626 -0.03393,0.077557 -0.02908,0.033931 -0.07756,0.033931 h -0.499273 q -0.06302,0 -0.09695,-0.029084 -0.02908,-0.029084 -0.04847,-0.05332 l -0.848274,-1.33301 H 11.34193 v 1.2990791 q 0,0.048473 -0.03393,0.082404 -0.02908,0.033931 -0.0824,0.033931 z"
       style="font-weight:500;font-family:Rubik;-inkscape-font-specification:'Rubik Medium';fill:#b21751;fill-opacity:1"
       id="path1440" /><path
       d="m 13.707408,5.4503913 q -0.03878,0 -0.07271,-0.029084 -0.02908,-0.029084 -0.02908,-0.07271 0,-0.019389 0.0097,-0.043626 l 1.168201,-3.126515 q 0.01454,-0.048473 0.05332,-0.082404 0.04363,-0.038778 0.116335,-0.038778 h 0.528357 q 0.07271,0 0.111488,0.038778 0.03878,0.033931 0.05817,0.082404 l 1.168202,3.126515 q 0.0048,0.024236 0.0048,0.043626 0,0.043626 -0.02908,0.07271 -0.02908,0.029084 -0.06786,0.029084 h -0.421716 q -0.06786,0 -0.101794,-0.029084 -0.02908,-0.033931 -0.03878,-0.063015 L 15.937171,4.7669206 H 14.49752 l -0.227824,0.5913718 q -0.0097,0.029084 -0.04363,0.063015 -0.02908,0.029084 -0.09695,0.029084 z m 0.959768,-1.2409114 h 1.100339 L 15.214922,2.7116611 Z"
       style="font-weight:500;font-family:Rubik;-inkscape-font-specification:'Rubik Medium';fill:#b21751;fill-opacity:1"
       id="path1442" /><path
       d="m 18.423836,5.4988644 q -0.334465,0 -0.581677,-0.07271 -0.247213,-0.077557 -0.407175,-0.203587 -0.159961,-0.12603 -0.25206,-0.2859913 -0.08725,-0.1648085 -0.101793,-0.3393117 -0.0048,-0.043626 0.02424,-0.067862 0.03393,-0.029084 0.07756,-0.029084 h 0.436258 q 0.04847,0 0.08241,0.024237 0.03393,0.019389 0.05817,0.07271 0.05817,0.1551139 0.218129,0.2520601 0.159961,0.096946 0.431411,0.096946 0.203587,0 0.358701,-0.058168 0.155114,-0.058168 0.247213,-0.1648085 0.0921,-0.1114881 0.0921,-0.2617548 0,-0.2375182 -0.174503,-0.3635482 -0.17452,-0.1260303 -0.4799,-0.1260303 h -0.349007 q -0.05332,0 -0.08725,-0.033931 -0.02908,-0.038778 -0.02908,-0.087252 V 3.569635 q 0,-0.05332 0.02908,-0.087252 0.03393,-0.033931 0.08725,-0.033931 h 0.334465 q 0.25206,0 0.407174,-0.1066408 0.159961,-0.1066408 0.159961,-0.3393117 0,-0.1357247 -0.07756,-0.2326709 -0.07271,-0.096946 -0.203587,-0.1502666 -0.130877,-0.05332 -0.300533,-0.05332 -0.256908,0 -0.421716,0.087252 -0.164809,0.087252 -0.203587,0.266602 -0.01939,0.048473 -0.04847,0.07271 -0.02908,0.019389 -0.07756,0.019389 h -0.4508 q -0.04363,0 -0.07756,-0.029084 -0.02908,-0.029084 -0.02424,-0.07271 0.01454,-0.1793505 0.09695,-0.3393117 0.08725,-0.1648085 0.247212,-0.2908386 0.159962,-0.1260301 0.39748,-0.1987397 0.242365,-0.07271 0.571982,-0.07271 0.407174,0 0.683471,0.1357247 0.276297,0.1308774 0.421716,0.344159 0.150267,0.2084344 0.150267,0.4604945 0,0.1308774 -0.03393,0.2666021 -0.03393,0.1308773 -0.121183,0.2472128 -0.08241,0.1163354 -0.227824,0.203587 0.174503,0.087252 0.281144,0.2181289 0.111488,0.1260301 0.159961,0.281144 0.05332,0.1551139 0.05332,0.3150752 0,0.3053805 -0.169656,0.5332041 -0.164809,0.2278236 -0.475036,0.3587009 -0.310228,0.1260301 -0.731944,0.1260301 z"
       style="font-weight:500;font-family:Rubik;-inkscape-font-specification:'Rubik Medium';fill:#b21751;fill-opacity:1"
       id="path1444" /><path
       d="m 20.522721,5.4503913 q -0.04847,0 -0.0824,-0.033931 -0.03393,-0.033931 -0.03393,-0.087252 V 2.178457 q 0,-0.05332 0.03393,-0.087252 0.03393,-0.033931 0.08725,-0.033931 h 0.436258 q 0.05332,0 0.0824,0.033931 0.03393,0.033931 0.03393,0.087252 v 2.2249153 l 1.594765,-2.2685411 q 0.01939,-0.024236 0.05332,-0.048473 0.03393,-0.029084 0.08725,-0.029084 h 0.402327 q 0.04847,0 0.0824,0.033931 0.03393,0.033931 0.03393,0.087252 v 3.1555989 q 0,0.048473 -0.03393,0.082404 -0.03393,0.033931 -0.0824,0.033931 h -0.436258 q -0.05332,0 -0.08725,-0.033931 -0.03393,-0.033931 -0.03393,-0.082404 V 3.1527663 l -1.589918,2.220068 q -0.01454,0.019389 -0.04847,0.048473 -0.03393,0.029084 -0.0921,0.029084 z"
       style="font-weight:500;font-family:Rubik;-inkscape-font-specification:'Rubik Medium';fill:#b21751;fill-opacity:1"
       id="path1446" /><path
       d="m 24.206668,5.4503913 q -0.04847,0 -0.08241,-0.029084 -0.03393,-0.033931 -0.03393,-0.087251 V 2.178457 q 0,-0.05332 0.03393,-0.087252 0.03393,-0.033931 0.08241,-0.033931 h 0.441105 q 0.05332,0 0.0824,0.033931 0.03393,0.033931 0.03393,0.087252 V 3.429063 H 26.19406 V 2.178457 q 0,-0.05332 0.03393,-0.087252 0.03393,-0.033931 0.0824,-0.033931 h 0.436258 q 0.05332,0 0.08725,0.033931 0.03393,0.033931 0.03393,0.087252 v 3.1555989 q 0,0.048473 -0.03393,0.082404 -0.03393,0.033931 -0.08725,0.033931 H 26.3104 q -0.04847,0 -0.0824,-0.033931 -0.03393,-0.033931 -0.03393,-0.082404 V 4.0349768 h -1.429957 v 1.2990791 q 0,0.048473 -0.03393,0.082404 -0.02908,0.033931 -0.0824,0.033931 z"
       style="font-weight:500;font-family:Rubik;-inkscape-font-specification:'Rubik Medium';fill:#b21751;fill-opacity:1"
       id="path1448" /><path
       d="m 28.927939,5.4988644 q -0.431411,0 -0.741639,-0.140572 Q 27.876072,5.2128731 27.701569,4.9171872 27.527066,4.616654 27.512524,4.1707014 q -0.0048,-0.2084343 -0.0048,-0.4120213 0,-0.203587 0.0048,-0.4168687 0.01454,-0.4411052 0.193893,-0.7367911 0.17935,-0.2956859 0.489578,-0.4459525 0.315075,-0.1502667 0.731944,-0.1502667 0.416868,0 0.731944,0.1502667 0.315075,0.1502666 0.494425,0.4459525 0.179351,0.2956859 0.193893,0.7367911 0.0097,0.2132817 0.0097,0.4168687 0,0.203587 -0.0097,0.4120213 -0.01454,0.4459526 -0.189046,0.7464858 -0.174503,0.2956859 -0.489578,0.4411052 -0.310228,0.140572 -0.741638,0.140572 z m 0,-0.5574407 q 0.315075,0 0.513815,-0.1841977 0.198739,-0.1890451 0.213281,-0.6107611 0.0097,-0.2132817 0.0097,-0.3926321 0,-0.1841978 -0.0097,-0.3926321 -0.0097,-0.281144 -0.106641,-0.4556472 -0.0921,-0.1793505 -0.25206,-0.2569074 -0.159961,-0.082404 -0.368395,-0.082404 -0.203587,0 -0.363549,0.082404 -0.159961,0.077557 -0.256907,0.2569074 -0.0921,0.1745032 -0.101794,0.4556472 -0.0048,0.2084343 -0.0048,0.3926321 0,0.1793504 0.0048,0.3926321 0.01454,0.421716 0.213282,0.6107611 0.19874,0.1841977 0.508968,0.1841977 z"
       style="font-weight:500;font-family:Rubik;-inkscape-font-specification:'Rubik Medium';fill:#b21751;fill-opacity:1"
       id="path1450" /><path
       d="m 31.109227,5.4503913 q -0.04847,0 -0.0824,-0.033931 -0.03393,-0.033931 -0.03393,-0.082404 V 2.178457 q 0,-0.05332 0.03393,-0.087252 0.03393,-0.033931 0.0824,-0.033931 h 1.40572 q 0.392632,0 0.639845,0.1211828 0.247213,0.1163354 0.363548,0.3247698 0.121183,0.2084343 0.121183,0.484731 0,0.1841978 -0.06786,0.3247698 -0.06302,0.1357246 -0.159962,0.2229762 -0.0921,0.087252 -0.184197,0.1357247 0.189045,0.087252 0.334464,0.2908386 0.145419,0.203587 0.145419,0.484731 0,0.2908386 -0.130877,0.5186622 -0.130878,0.2278236 -0.387785,0.3587009 -0.256907,0.1260301 -0.634998,0.1260301 z m 0.557441,-0.5138149 h 0.8095 q 0.261755,0 0.39748,-0.140572 0.135725,-0.1454193 0.135725,-0.3490063 0,-0.2132816 -0.140572,-0.3538536 -0.135725,-0.140572 -0.392633,-0.140572 h -0.8095 z m 0,-1.4881242 h 0.761027 q 0.256908,0 0.382938,-0.1211827 0.130877,-0.1260301 0.130877,-0.3247698 0,-0.203587 -0.130877,-0.3199225 -0.12603,-0.1163354 -0.382938,-0.1163354 h -0.761027 z"
       style="font-weight:500;font-family:Rubik;-inkscape-font-specification:'Rubik Medium';fill:#ffd858;fill-opacity:1"
       id="path1452" /><path
       d="m 34.434478,5.4503913 q -0.04847,0 -0.08241,-0.033931 -0.03393,-0.033931 -0.03393,-0.087252 V 2.178457 q 0,-0.05332 0.03393,-0.087252 0.03393,-0.033931 0.08725,-0.033931 h 0.436258 q 0.05332,0 0.0824,0.033931 0.03393,0.033931 0.03393,0.087252 v 2.2249153 l 1.594765,-2.2685411 q 0.01939,-0.024236 0.05332,-0.048473 0.03393,-0.029084 0.08725,-0.029084 h 0.402327 q 0.04847,0 0.0824,0.033931 0.03393,0.033931 0.03393,0.087252 v 3.1555989 q 0,0.048473 -0.03393,0.082404 -0.03393,0.033931 -0.0824,0.033931 H 36.69331 q -0.05332,0 -0.08725,-0.033931 -0.03393,-0.033931 -0.03393,-0.082404 V 3.1527663 l -1.589917,2.220068 q -0.01454,0.019389 -0.04847,0.048473 -0.03393,0.029084 -0.0921,0.029084 z"
       style="font-weight:500;font-family:Rubik;-inkscape-font-specification:'Rubik Medium';fill:#ffd858;fill-opacity:1"
       id="path1454" /><path
       d="m 38.118424,5.4503913 q -0.04847,0 -0.0824,-0.029084 -0.03393,-0.033931 -0.03393,-0.087251 V 2.178457 q 0,-0.05332 0.03393,-0.087252 0.03393,-0.033931 0.0824,-0.033931 h 0.441105 q 0.05332,0 0.08241,0.033931 0.03393,0.033931 0.03393,0.087252 v 1.250606 h 1.429956 V 2.178457 q 0,-0.05332 0.03393,-0.087252 0.03393,-0.033931 0.0824,-0.033931 h 0.436258 q 0.05332,0 0.08725,0.033931 0.03393,0.033931 0.03393,0.087252 v 3.1555989 q 0,0.048473 -0.03393,0.082404 -0.03393,0.033931 -0.08725,0.033931 h -0.436258 q -0.04847,0 -0.0824,-0.033931 -0.03393,-0.033931 -0.03393,-0.082404 V 4.0349768 h -1.429956 v 1.2990791 q 0,0.048473 -0.03393,0.082404 -0.02908,0.033931 -0.08241,0.033931 z"
       style="font-weight:500;font-family:Rubik;-inkscape-font-specification:'Rubik Medium';fill:#ffd858;fill-opacity:1"
       id="path1456" /></g><path
     style="fill:#8c94a8;fill-opacity:1;stroke-width:0.0866217;stroke-dasharray:none"
     d="M 2.8907679,2.8738198 C 3.6161527,2.1484497 4.5805778,1.7489801 5.6064056,1.7489801 c 1.0258269,0 1.990252,0.3994696 2.7156368,1.1248397 0.7253856,0.7253697 1.1248398,1.6898096 1.1248398,2.7156374 0,1.0258277 -0.3994698,1.9902676 -1.1248398,2.7156376 -0.7253848,0.7253701 -1.6898099,1.1248393 -2.7156368,1.1248393 -1.0258278,0 -1.9902529,-0.3994692 -2.7156377,-1.1248393 -0.72537,-0.72537 -1.1248398,-1.6898099 -1.1248398,-2.7156376 0,-1.0258278 0.3994698,-1.9902521 1.1248398,-2.7156374 z M 2.430676,7.2843829 3.0545886,6.9241727 C 2.8624296,6.5582775 2.7467351,6.146296 2.7287325,5.7094724 H 2.0081631 c 0.01871,0.5677748 0.1694311,1.1026517 0.4225129,1.5749105 z M 5.7264199,8.4671293 V 9.1876988 C 6.2941957,9.1689885 6.8290716,9.0182832 7.3013305,8.7652015 L 6.9411064,8.1412741 C 6.5752259,8.3334184 6.1632445,8.4491276 5.7264199,8.4671293 Z m -0.2400295,0 C 5.0495658,8.4491294 4.6375844,8.3334184 4.2716892,8.1412741 L 3.9114642,8.7652015 C 4.3837231,9.0182832 4.9186146,9.1690067 5.4863756,9.1876988 Z M 5.6064056,8.229785 c 1.4558854,0 2.6403279,-1.1844424 2.6403279,-2.6403278 0,-1.4558863 -1.1844425,-2.640328 -2.6403279,-2.640328 -1.4558863,0 -2.6403288,1.1844417 -2.6403288,2.640328 0,1.4558854 1.1844425,2.6403278 2.6403288,2.6403278 z M 9.2046472,5.7094724 H 8.4840778 C 8.4660778,6.146296 8.3503659,6.5582775 8.1582226,6.9241727 L 8.7821499,7.2843976 C 9.0352161,6.8121241 9.1859396,6.2772472 9.2046472,5.7094724 Z M 8.7821344,3.8945314 8.1582226,4.2547416 C 8.3503659,4.6206369 8.4660752,5.0326183 8.4840778,5.4694419 H 9.2046472 C 9.185937,4.9016671 9.0352161,4.3667903 8.7821344,3.8945314 Z M 5.4863904,2.7117847 V 1.9912152 C 4.9186146,2.0099072 4.3837387,2.1606312 3.9114798,2.4137127 L 4.2716892,3.0376402 C 4.6375844,2.8454963 5.0495658,2.7297869 5.4863904,2.7117847 Z m 0.2400295,0 c 0.4368246,0.018003 0.848806,0.1337116 1.2147012,0.3258555 L 7.3013461,2.4137127 C 6.8290872,2.1606312 6.2941957,2.0099075 5.7264347,1.9912152 Z M 2.7287325,5.4694419 c 0.018,-0.4368236 0.1337119,-0.848805 0.3258561,-1.2147003 L 2.4306604,3.8945167 C 2.1775795,4.3667755 2.0268552,4.9016671 2.0081631,5.4694272 Z M 2.551081,3.6868905 3.1748732,4.0470401 C 3.4024215,3.6895914 3.7065242,3.385473 4.0639886,3.1579248 L 3.703839,2.5341326 C 3.2375509,2.8255438 2.8424919,3.2206025 2.551081,3.6868905 Z M 7.5089713,2.5341326 7.1488217,3.1579248 C 7.5062713,3.385473 7.8103888,3.6895758 8.0379371,4.0470401 L 8.6617293,3.6868905 C 8.3703184,3.2206025 7.9752594,2.8255438 7.5089713,2.5341326 Z M 8.6617293,7.4920238 8.0379371,7.1318733 C 7.8103888,7.4893229 7.5062861,7.7934413 7.1488217,8.0209895 l 0.3601496,0.6237923 c 0.4662881,-0.291411 0.8613471,-0.68647 1.152758,-1.152758 z M 3.703839,8.6447818 4.0639886,8.0209895 C 3.706539,7.7934413 3.4024215,7.4893385 3.1748732,7.1318733 L 2.551081,7.4920238 c 0.2914109,0.466288 0.6864699,0.861347 1.152758,1.152758 z"
     id="path11679" /><path
     style="fill:#b21751;fill-opacity:1;stroke:none;stroke-width:0.00095704;stroke-dasharray:none;stroke-opacity:1"
     d="M 2.8658183,3.8652433 C 2.6967665,3.7676471 2.5584516,3.686044 2.5584516,3.683903 c 0,-0.00595 0.074599,-0.1186226 0.1244329,-0.1879455 0.2121946,-0.2951807 0.476784,-0.5652631 0.7688793,-0.7848404 0.079051,-0.059428 0.2401127,-0.1693814 0.248107,-0.1693814 0.00277,0 0.084811,0.1382693 0.1824019,0.307265 l 0.1774316,0.3072651 -0.06119,0.041597 C 3.684848,3.4110964 3.4280182,3.6678297 3.215206,3.9808762 l -0.04202,0.061815 z"
     id="path13062" /><path
     style="fill:#b21751;fill-opacity:1;stroke:none;stroke-width:0.00270693;stroke-dasharray:none;stroke-opacity:1"
     d="M 2.394229,7.197056 C 2.1889174,6.7903351 2.0612656,6.3238891 2.0202529,5.8305271 L 2.010967,5.7188664 h 0.3517309 0.3517308 l 0.00814,0.030453 c 0.0045,0.016749 0.00823,0.054088 0.00832,0.082977 7.761e-4,0.2207092 0.1220075,0.6819636 0.2555236,0.9722048 L 3.0406529,6.922408 2.8486438,7.0331982 C 2.7430381,7.0941331 2.6064114,7.1734198 2.5450279,7.2093916 l -0.111606,0.065403 z"
     id="path13135" /><path
     style="fill:#b21751;fill-opacity:1;stroke:none;stroke-width:0.00270693;stroke-dasharray:none;stroke-opacity:1"
     d="M 5.3433095,9.1742683 C 4.892312,9.139195 4.3945361,9.0015337 3.9992467,8.8025641 l -0.078575,-0.039551 0.026212,-0.043415 c 0.014414,-0.023878 0.088832,-0.153045 0.1653721,-0.2870379 0.076539,-0.1339929 0.1457852,-0.2508531 0.1538757,-0.2596893 0.0112,-0.012234 0.038858,-0.00482 0.1159691,0.03106 0.3182117,0.148097 0.7667483,0.2624659 1.0293498,0.2624659 h 0.06721 v 0.3586688 0.358668 l -0.037221,-0.00236 c -0.020469,-0.0013 -0.064628,-0.0045 -0.098126,-0.0071 z"
     id="path13137" /><path
     style="fill:#b21751;fill-opacity:1;stroke:none;stroke-width:0.00270693;stroke-dasharray:none;stroke-opacity:1"
     d="M 7.4569697,8.5374848 C 7.4277592,8.4872211 7.3488338,8.3507114 7.2815807,8.23413 L 7.1593012,8.0221639 7.2512718,7.9610078 C 7.5116228,7.7878856 7.8316588,7.4647086 7.994233,7.2107543 l 0.045502,-0.071083 0.042471,0.026044 c 0.023362,0.014324 0.1551464,0.091028 0.292861,0.1704527 0.1377146,0.079425 0.2552195,0.149046 0.2611219,0.1547134 0.00589,0.00567 -0.020192,0.056074 -0.057984,0.1120161 C 8.3789762,7.8977982 8.0496778,8.242218 7.7559462,8.4629149 7.6648072,8.5313928 7.5722017,8.5967471 7.5501574,8.6081469 l -0.04008,0.020727 z"
     id="path13139" /><path
     style="fill:#b21751;fill-opacity:1;stroke:none;stroke-width:0.00270693;stroke-dasharray:none;stroke-opacity:1"
     d="M 8.4792859,5.3279543 C 8.4627844,5.057086 8.3651912,4.6848051 8.2358252,4.3992391 8.2021034,4.324799 8.178525,4.2597077 8.1834278,4.2545927 8.1883652,4.2494821 8.2989326,4.1835413 8.4292038,4.1080679 8.559475,4.0325944 8.6917775,3.9559204 8.72321,3.9376816 l 0.057153,-0.033161 0.039352,0.078176 C 9.0264983,4.3935159 9.1527537,4.8605467 9.193019,5.363582 l 0.00788,0.098126 H 8.8441841 8.4874664 Z"
     id="path13141" /><path
     style="fill:#b21751;fill-opacity:1;stroke:none;stroke-width:0.00270693;stroke-dasharray:none;stroke-opacity:1"
     d="M 6.8185852,2.9685574 C 6.5274376,2.8338468 6.067168,2.7141765 5.8401993,2.7141765 c -0.1117819,0 -0.1043852,0.026096 -0.1043852,-0.368292 V 1.9940233 l 0.1116605,0.00928 c 0.3132189,0.026038 0.6029667,0.083694 0.883135,0.1757346 0.167872,0.055148 0.4966394,0.1945253 0.5383538,0.2282273 0.016631,0.013439 -0.00684,0.061546 -0.1510509,0.3092653 C 7.0240005,2.8778757 6.9441191,3.012562 6.940397,3.0158355 6.936677,3.0191055 6.881858,2.9978335 6.8185852,2.9685574 Z"
     id="path13143" /><path
     d="m 4.4022783,4.8898449 c 0.064532,0.573616 0.5879564,1.0683598 1.2117638,1.0683598 0.6739988,0 1.2261042,-0.573616 1.2261042,-1.1974234 v -0.01434 C 6.1374667,4.6532283 5.2555321,5.1623125 4.4022783,4.8898449"
     fill="#961623"
     id="path14174"
     style="stroke-width:0.071702;fill:#b21751;fill-opacity:1" /><path
     d="m 7.1914861,4.7679515 c 0,-0.8174028 -0.4087014,-1.3193168 -0.4087014,-1.3193168 H 4.4452995 c 0,0 -0.4087014,0.5090842 -0.4087014,1.3193168 0,0.7743816 0.6668286,1.4985718 1.4985718,1.541593 -0.00717,0.4517226 -0.050191,0.9177856 -0.1577444,1.0827002 -0.1577444,0.2294464 -0.7026796,0.1147232 -0.7026796,0.35851 h 1.8785924 c 0,-0.2437868 -0.5449352,-0.1290636 -0.7026796,-0.35851 C 5.7431057,7.2273301 5.7000845,6.7612671 5.6929143,6.3095445 6.5246575,6.2665233 7.1914861,5.5495033 7.1914861,4.7679515 m -1.577444,1.3551678 c -0.7026796,0 -1.2834658,-0.5592756 -1.3551678,-1.1974234 -0.00717,-0.043021 -0.00717,-0.093213 -0.00717,-0.1362338 0,-0.7098498 0.3513398,-1.1400618 0.3513398,-1.1400618 h 2.0219964 c 0,0 0.3441696,0.430212 0.3513398,1.1257214 v 0.01434 c 0,0.6883392 -0.609467,1.3336572 -1.362338,1.3336572"
     opacity="0.8"
     fill="#a1b8c7"
     id="path14176"
     style="stroke-width:0.071702;fill:#8c94a8;fill-opacity:1" /></svg>
