<?xml version="1.0" encoding="UTF-8" standalone="no"?>
<svg
   viewBox="0 0 42.333 10.583"
   version="1.1"
   id="svg5425"
   sodipodi:docname="logo3.svg"
   inkscape:version="1.2.2 (b0a8486541, 2022-12-01, custom)"
   xml:space="preserve"
   xmlns:inkscape="http://www.inkscape.org/namespaces/inkscape"
   xmlns:sodipodi="http://sodipodi.sourceforge.net/DTD/sodipodi-0.dtd"
   xmlns="http://www.w3.org/2000/svg"
   xmlns:svg="http://www.w3.org/2000/svg"><defs
     id="defs5429" /><sodipodi:namedview
     id="namedview5427"
     pagecolor="#ffffff"
     bordercolor="#000000"
     borderopacity="0.25"
     inkscape:showpageshadow="2"
     inkscape:pageopacity="0.0"
     inkscape:pagecheckerboard="0"
     inkscape:deskcolor="#d1d1d1"
     showgrid="false"
     inkscape:zoom="22.627418"
     inkscape:cx="14.252621"
     inkscape:cy="7.8444657"
     inkscape:window-width="1296"
     inkscape:window-height="704"
     inkscape:window-x="72"
     inkscape:window-y="27"
     inkscape:window-maximized="1"
     inkscape:current-layer="svg5425" /><text
     xml:space="preserve"
     style="font-size:26.6667px;font-family:'Bella Script CYR';-inkscape-font-specification:'Bella Script CYR';fill:#47a039"
     x="15.630708"
     y="2.3435705"
     id="text474"><tspan
       sodipodi:role="line"
       id="tspan472" /></text><g
     aria-label="играй и дегустируй"
     id="text5999"
     style="font-size:2.38626px;font-family:Cinzel;display:block;fill:#8c94a8;stroke-width:0.082856;fill-opacity:1"
     transform="translate(-0.31384029,0.3326721)"><path
       d="m 13.166365,6.9556599 v 1.304986 H 12.953139 V 7.2131616 L 12.32395,8.2606459 h -0.274979 v -1.304986 h 0.213225 V 8.0008138 L 12.89022,6.9556599 Z"
       id="path20261"
       style="fill:#8c94a8;fill-opacity:1" /><path
       d="m 13.599806,8.2606459 v -1.304986 h 0.920482 v 0.1712794 h -0.704926 v 1.1337066 z"
       id="path20263"
       style="fill:#8c94a8;fill-opacity:1" /><path
       d="M 15.069081,8.064898 V 8.7570066 H 14.853525 V 6.9556599 h 0.215556 v 0.1980782 q 0.06758,-0.1165166 0.170114,-0.1724445 0.1037,-0.057093 0.247015,-0.057093 0.237694,0 0.38567,0.1887569 0.149141,0.1887569 0.149141,0.4963608 0,0.3076038 -0.149141,0.4963607 -0.147976,0.1887569 -0.38567,0.1887569 -0.143315,0 -0.247015,-0.055928 Q 15.13666,8.1814146 15.069081,8.064898 Z m 0.729394,-0.4555799 q 0,-0.2365287 -0.09787,-0.3705228 -0.09671,-0.1351593 -0.266823,-0.1351593 -0.170115,0 -0.267989,0.1351593 -0.09671,0.1339941 -0.09671,0.3705228 0,0.2365287 0.09671,0.3716879 0.09787,0.1339941 0.267989,0.1339941 0.170114,0 0.266823,-0.1339941 0.09787,-0.1351592 0.09787,-0.3716879 z"
       id="path20265"
       style="fill:#8c94a8;fill-opacity:1" /><path
       d="m 16.969466,7.6046574 q -0.259832,0 -0.360036,0.059424 -0.100204,0.059423 -0.100204,0.2027388 0,0.1141863 0.07457,0.1817659 0.07574,0.066415 0.20507,0.066415 0.17827,0 0.285465,-0.1258379 0.108361,-0.1270031 0.108361,-0.336733 v -0.047772 z m 0.427616,-0.088553 v 0.7445411 h -0.21439 V 8.0625676 q -0.07341,0.118847 -0.182931,0.1759401 -0.109526,0.055928 -0.267989,0.055928 -0.200408,0 -0.319255,-0.111856 -0.117682,-0.1130211 -0.117682,-0.301778 0,-0.2202163 0.146811,-0.3320723 0.147976,-0.1118559 0.440433,-0.1118559 h 0.300613 v -0.020973 q 0,-0.1479761 -0.09787,-0.2283725 -0.09671,-0.081562 -0.272649,-0.081562 -0.111856,0 -0.217886,0.026799 -0.10603,0.026799 -0.203904,0.080396 V 7.0150834 q 0.117682,-0.045441 0.228372,-0.06758 0.110691,-0.023303 0.215556,-0.023303 0.283135,0 0.422955,0.1468109 0.13982,0.146811 0.13982,0.4450935 z"
       id="path20267"
       style="fill:#8c94a8;fill-opacity:1" /><path
       d="m 18.947918,6.9556599 v 1.304986 H 18.734693 V 7.2131616 l -0.62919,1.0474843 H 17.830524 V 6.9556599 H 18.04375 V 8.0008138 L 18.671774,6.9556599 Z M 18.025107,6.4476475 h 0.13749 q 0.01282,0.087387 0.06874,0.1316638 0.05709,0.043111 0.158463,0.043111 0.100204,0 0.156132,-0.043111 0.05593,-0.043111 0.07108,-0.1316638 h 0.13749 q -0.01165,0.1666188 -0.1037,0.2505107 -0.09205,0.083892 -0.260997,0.083892 -0.168949,0 -0.260997,-0.083892 -0.09205,-0.083892 -0.103701,-0.2505107 z"
       id="path20269"
       style="fill:#8c94a8;fill-opacity:1" /><path
       d="m 21.257278,6.9556599 v 1.304986 H 21.044052 V 7.2131616 l -0.629189,1.0474843 h -0.27498 v -1.304986 h 0.213226 v 1.0451539 l 0.628024,-1.0451539 z"
       id="path20271"
       style="fill:#8c94a8;fill-opacity:1" /><path
       d="m 22.748691,8.0893665 h 0.622198 V 7.1269393 H 22.91997 v 0.1631233 q 0,0.4800484 -0.13749,0.7363849 z m -0.3111,0 q 0.10603,-0.046607 0.152637,-0.1456458 0.114186,-0.24585 0.114186,-0.7410456 V 6.9556599 h 0.882031 v 1.1337066 h 0.171279 v 0.5010214 h -0.171279 v -0.329742 h -1.057971 v 0.329742 H 22.357195 V 8.0893665 Z"
       id="path20273"
       style="fill:#8c94a8;fill-opacity:1" /><path
       d="m 25.223503,7.5545553 v 0.1048649 h -0.985731 q 0.01398,0.2213815 0.132829,0.3378981 0.120012,0.1153515 0.333238,0.1153515 0.123507,0 0.238859,-0.030294 0.116516,-0.030294 0.230703,-0.090883 v 0.2027389 q -0.115352,0.048937 -0.236529,0.074571 -0.121177,0.025634 -0.24585,0.025634 -0.312265,0 -0.495196,-0.1817659 -0.181766,-0.1817659 -0.181766,-0.4917001 0,-0.3204206 0.172445,-0.5080124 0.17361,-0.1887569 0.467232,-0.1887569 0.263327,0 0.415964,0.1701143 0.153802,0.168949 0.153802,0.4602396 z m -0.214391,-0.062919 q -0.0023,-0.1759401 -0.09904,-0.280805 -0.09554,-0.104865 -0.254006,-0.104865 -0.179436,0 -0.287796,0.1013695 -0.107195,0.1013694 -0.123508,0.2854657 z"
       id="path20275"
       style="fill:#8c94a8;fill-opacity:1" /><path
       d="m 25.567227,8.2606459 v -1.304986 h 0.920481 v 0.1712794 h -0.704926 v 1.1337066 z"
       id="path20277"
       style="fill:#8c94a8;fill-opacity:1" /><path
       d="m 27.372069,8.3818231 q -0.09088,0.2330332 -0.177106,0.3041084 -0.08622,0.071075 -0.230702,0.071075 h -0.17128 V 8.577571 h 0.125838 q 0.08855,0 0.13749,-0.041946 0.04894,-0.041946 0.10836,-0.1980782 l 0.03845,-0.097874 -0.527821,-1.284013 h 0.227208 l 0.407808,1.0206855 0.407808,-1.0206855 h 0.227207 z"
       id="path20279"
       style="fill:#8c94a8;fill-opacity:1" /><path
       d="m 29.180407,7.0057621 v 0.2004085 q -0.09088,-0.050102 -0.182931,-0.074571 -0.09088,-0.025634 -0.184096,-0.025634 -0.208565,0 -0.323917,0.132829 -0.115351,0.1316637 -0.115351,0.3705228 0,0.238859 0.115351,0.3716879 0.115352,0.1316638 0.323917,0.1316638 0.09321,0 0.184096,-0.024469 0.09205,-0.025634 0.182931,-0.075736 v 0.1980782 q -0.08972,0.041946 -0.186427,0.062919 -0.09554,0.020973 -0.203904,0.020973 -0.294787,0 -0.468396,-0.1852614 -0.17361,-0.1852614 -0.17361,-0.4998562 0,-0.3192555 0.174775,-0.5021866 0.17594,-0.1829311 0.481213,-0.1829311 0.09904,0 0.193418,0.020973 0.09438,0.019808 0.182931,0.060589 z"
       id="path20281"
       style="fill:#8c94a8;fill-opacity:1" /><path
       d="m 29.398293,6.9556599 h 1.250224 V 7.1269393 H 30.128853 V 8.2606459 H 29.917957 V 7.1269393 h -0.519664 z"
       id="path20283"
       style="fill:#8c94a8;fill-opacity:1" /><path
       d="m 32.05254,6.9556599 v 1.304986 H 31.839315 V 7.2131616 l -0.62919,1.0474843 h -0.274979 v -1.304986 h 0.213225 v 1.0451539 l 0.628025,-1.0451539 z"
       id="path20285"
       style="fill:#8c94a8;fill-opacity:1" /><path
       d="M 32.701538,8.064898 V 8.7570066 H 32.485982 V 6.9556599 h 0.215556 v 0.1980782 q 0.06758,-0.1165166 0.170114,-0.1724445 0.1037,-0.057093 0.247015,-0.057093 0.237694,0 0.38567,0.1887569 0.149142,0.1887569 0.149142,0.4963608 0,0.3076038 -0.149142,0.4963607 -0.147976,0.1887569 -0.38567,0.1887569 -0.143315,0 -0.247015,-0.055928 -0.102534,-0.057093 -0.170114,-0.1736099 z m 0.729394,-0.4555799 q 0,-0.2365287 -0.09787,-0.3705228 -0.09671,-0.1351593 -0.266823,-0.1351593 -0.170114,0 -0.267988,0.1351593 -0.09671,0.1339941 -0.09671,0.3705228 0,0.2365287 0.09671,0.3716879 0.09787,0.1339941 0.267988,0.1339941 0.170114,0 0.266823,-0.1339941 0.09787,-0.1351592 0.09787,-0.3716879 z"
       id="path20287"
       style="fill:#8c94a8;fill-opacity:1" /><path
       d="m 34.551821,8.3818231 q -0.09088,0.2330332 -0.177105,0.3041084 -0.08622,0.071075 -0.230703,0.071075 h -0.17128 V 8.577571 h 0.125838 q 0.08855,0 0.13749,-0.041946 0.04894,-0.041946 0.10836,-0.1980782 l 0.03845,-0.097874 -0.52782,-1.284013 h 0.227207 l 0.407808,1.0206855 0.407808,-1.0206855 h 0.227208 z"
       id="path20289"
       style="fill:#8c94a8;fill-opacity:1" /><path
       d="m 36.530274,6.9556599 v 1.304986 H 36.317048 V 7.2131616 l -0.62919,1.0474843 h -0.274979 v -1.304986 h 0.213226 V 8.0008138 L 36.254129,6.9556599 Z M 35.607462,6.4476475 h 0.13749 q 0.01282,0.087387 0.06874,0.1316638 0.05709,0.043111 0.158463,0.043111 0.100204,0 0.156132,-0.043111 0.05593,-0.043111 0.07108,-0.1316638 h 0.13749 q -0.01165,0.1666188 -0.1037,0.2505107 -0.09205,0.083892 -0.260997,0.083892 -0.168949,0 -0.260997,-0.083892 -0.09205,-0.083892 -0.103701,-0.2505107 z"
       id="path20291"
       style="fill:#8c94a8;fill-opacity:1" /></g><g
     aria-label="КАЗИНОВИН"
     id="text5997-3"
     style="font-size:4.84731px;font-family:Bungee;display:block;fill:#8a4885;stroke-width:0.0381099"
     transform="matrix(1.0480144,0,0,1.1552777,-2.3071454,-0.6572788)"><path
       d="m 10.784489,5.4503913 q -0.04847,0 -0.0824,-0.029084 -0.03393,-0.033931 -0.03393,-0.087251 V 2.178457 q 0,-0.05332 0.03393,-0.087252 0.03393,-0.033931 0.0824,-0.033931 h 0.441106 q 0.05332,0 0.0824,0.033931 0.03393,0.033931 0.03393,0.087252 v 1.250606 h 0.421716 l 0.790112,-1.2845372 q 0.02424,-0.038778 0.06302,-0.063015 0.04363,-0.024237 0.111488,-0.024237 h 0.479884 q 0.04847,0 0.07271,0.029084 0.02908,0.029084 0.02908,0.07271 0,0.024237 -0.01939,0.058168 L 12.374407,3.695665 13.3778,5.2855828 q 0.01454,0.014542 0.01454,0.05332 0,0.043626 -0.03393,0.077557 -0.02908,0.033931 -0.07756,0.033931 h -0.499273 q -0.06302,0 -0.09695,-0.029084 -0.02908,-0.029084 -0.04847,-0.05332 l -0.848274,-1.33301 H 11.34193 v 1.2990791 q 0,0.048473 -0.03393,0.082404 -0.02908,0.033931 -0.0824,0.033931 z"
       style="font-weight:500;font-family:Rubik;-inkscape-font-specification:'Rubik Medium';fill:#912735;fill-opacity:1"
       id="path1440" /><path
       d="m 13.707408,5.4503913 q -0.03878,0 -0.07271,-0.029084 -0.02908,-0.029084 -0.02908,-0.07271 0,-0.019389 0.0097,-0.043626 l 1.168201,-3.126515 q 0.01454,-0.048473 0.05332,-0.082404 0.04363,-0.038778 0.116335,-0.038778 h 0.528357 q 0.07271,0 0.111488,0.038778 0.03878,0.033931 0.05817,0.082404 l 1.168202,3.126515 q 0.0048,0.024236 0.0048,0.043626 0,0.043626 -0.02908,0.07271 -0.02908,0.029084 -0.06786,0.029084 h -0.421716 q -0.06786,0 -0.101794,-0.029084 -0.02908,-0.033931 -0.03878,-0.063015 L 15.937171,4.7669206 H 14.49752 l -0.227824,0.5913718 q -0.0097,0.029084 -0.04363,0.063015 -0.02908,0.029084 -0.09695,0.029084 z m 0.959768,-1.2409114 h 1.100339 L 15.214922,2.7116611 Z"
       style="font-weight:500;font-family:Rubik;-inkscape-font-specification:'Rubik Medium';fill:#912735;fill-opacity:1"
       id="path1442" /><path
       d="m 18.423836,5.4988644 q -0.334465,0 -0.581677,-0.07271 -0.247213,-0.077557 -0.407175,-0.203587 -0.159961,-0.12603 -0.25206,-0.2859913 -0.08725,-0.1648085 -0.101793,-0.3393117 -0.0048,-0.043626 0.02424,-0.067862 0.03393,-0.029084 0.07756,-0.029084 h 0.436258 q 0.04847,0 0.08241,0.024237 0.03393,0.019389 0.05817,0.07271 0.05817,0.1551139 0.218129,0.2520601 0.159961,0.096946 0.431411,0.096946 0.203587,0 0.358701,-0.058168 0.155114,-0.058168 0.247213,-0.1648085 0.0921,-0.1114881 0.0921,-0.2617548 0,-0.2375182 -0.174503,-0.3635482 -0.17452,-0.1260303 -0.4799,-0.1260303 h -0.349007 q -0.05332,0 -0.08725,-0.033931 -0.02908,-0.038778 -0.02908,-0.087252 V 3.569635 q 0,-0.05332 0.02908,-0.087252 0.03393,-0.033931 0.08725,-0.033931 h 0.334465 q 0.25206,0 0.407174,-0.1066408 0.159961,-0.1066408 0.159961,-0.3393117 0,-0.1357247 -0.07756,-0.2326709 -0.07271,-0.096946 -0.203587,-0.1502666 -0.130877,-0.05332 -0.300533,-0.05332 -0.256908,0 -0.421716,0.087252 -0.164809,0.087252 -0.203587,0.266602 -0.01939,0.048473 -0.04847,0.07271 -0.02908,0.019389 -0.07756,0.019389 h -0.4508 q -0.04363,0 -0.07756,-0.029084 -0.02908,-0.029084 -0.02424,-0.07271 0.01454,-0.1793505 0.09695,-0.3393117 0.08725,-0.1648085 0.247212,-0.2908386 0.159962,-0.1260301 0.39748,-0.1987397 0.242365,-0.07271 0.571982,-0.07271 0.407174,0 0.683471,0.1357247 0.276297,0.1308774 0.421716,0.344159 0.150267,0.2084344 0.150267,0.4604945 0,0.1308774 -0.03393,0.2666021 -0.03393,0.1308773 -0.121183,0.2472128 -0.08241,0.1163354 -0.227824,0.203587 0.174503,0.087252 0.281144,0.2181289 0.111488,0.1260301 0.159961,0.281144 0.05332,0.1551139 0.05332,0.3150752 0,0.3053805 -0.169656,0.5332041 -0.164809,0.2278236 -0.475036,0.3587009 -0.310228,0.1260301 -0.731944,0.1260301 z"
       style="font-weight:500;font-family:Rubik;-inkscape-font-specification:'Rubik Medium';fill:#912735;fill-opacity:1"
       id="path1444" /><path
       d="m 20.522721,5.4503913 q -0.04847,0 -0.0824,-0.033931 -0.03393,-0.033931 -0.03393,-0.087252 V 2.178457 q 0,-0.05332 0.03393,-0.087252 0.03393,-0.033931 0.08725,-0.033931 h 0.436258 q 0.05332,0 0.0824,0.033931 0.03393,0.033931 0.03393,0.087252 v 2.2249153 l 1.594765,-2.2685411 q 0.01939,-0.024236 0.05332,-0.048473 0.03393,-0.029084 0.08725,-0.029084 h 0.402327 q 0.04847,0 0.0824,0.033931 0.03393,0.033931 0.03393,0.087252 v 3.1555989 q 0,0.048473 -0.03393,0.082404 -0.03393,0.033931 -0.0824,0.033931 h -0.436258 q -0.05332,0 -0.08725,-0.033931 -0.03393,-0.033931 -0.03393,-0.082404 V 3.1527663 l -1.589918,2.220068 q -0.01454,0.019389 -0.04847,0.048473 -0.03393,0.029084 -0.0921,0.029084 z"
       style="font-weight:500;font-family:Rubik;-inkscape-font-specification:'Rubik Medium';fill:#912735;fill-opacity:1"
       id="path1446" /><path
       d="m 24.206668,5.4503913 q -0.04847,0 -0.08241,-0.029084 -0.03393,-0.033931 -0.03393,-0.087251 V 2.178457 q 0,-0.05332 0.03393,-0.087252 0.03393,-0.033931 0.08241,-0.033931 h 0.441105 q 0.05332,0 0.0824,0.033931 0.03393,0.033931 0.03393,0.087252 V 3.429063 H 26.19406 V 2.178457 q 0,-0.05332 0.03393,-0.087252 0.03393,-0.033931 0.0824,-0.033931 h 0.436258 q 0.05332,0 0.08725,0.033931 0.03393,0.033931 0.03393,0.087252 v 3.1555989 q 0,0.048473 -0.03393,0.082404 -0.03393,0.033931 -0.08725,0.033931 H 26.3104 q -0.04847,0 -0.0824,-0.033931 -0.03393,-0.033931 -0.03393,-0.082404 V 4.0349768 h -1.429957 v 1.2990791 q 0,0.048473 -0.03393,0.082404 -0.02908,0.033931 -0.0824,0.033931 z"
       style="font-weight:500;font-family:Rubik;-inkscape-font-specification:'Rubik Medium';fill:#912735;fill-opacity:1"
       id="path1448" /><path
       d="m 28.927939,5.4988644 q -0.431411,0 -0.741639,-0.140572 Q 27.876072,5.2128731 27.701569,4.9171872 27.527066,4.616654 27.512524,4.1707014 q -0.0048,-0.2084343 -0.0048,-0.4120213 0,-0.203587 0.0048,-0.4168687 0.01454,-0.4411052 0.193893,-0.7367911 0.17935,-0.2956859 0.489578,-0.4459525 0.315075,-0.1502667 0.731944,-0.1502667 0.416868,0 0.731944,0.1502667 0.315075,0.1502666 0.494425,0.4459525 0.179351,0.2956859 0.193893,0.7367911 0.0097,0.2132817 0.0097,0.4168687 0,0.203587 -0.0097,0.4120213 -0.01454,0.4459526 -0.189046,0.7464858 -0.174503,0.2956859 -0.489578,0.4411052 -0.310228,0.140572 -0.741638,0.140572 z m 0,-0.5574407 q 0.315075,0 0.513815,-0.1841977 0.198739,-0.1890451 0.213281,-0.6107611 0.0097,-0.2132817 0.0097,-0.3926321 0,-0.1841978 -0.0097,-0.3926321 -0.0097,-0.281144 -0.106641,-0.4556472 -0.0921,-0.1793505 -0.25206,-0.2569074 -0.159961,-0.082404 -0.368395,-0.082404 -0.203587,0 -0.363549,0.082404 -0.159961,0.077557 -0.256907,0.2569074 -0.0921,0.1745032 -0.101794,0.4556472 -0.0048,0.2084343 -0.0048,0.3926321 0,0.1793504 0.0048,0.3926321 0.01454,0.421716 0.213282,0.6107611 0.19874,0.1841977 0.508968,0.1841977 z"
       style="font-weight:500;font-family:Rubik;-inkscape-font-specification:'Rubik Medium';fill:#912735;fill-opacity:1"
       id="path1450" /><path
       d="m 31.109227,5.4503913 q -0.04847,0 -0.0824,-0.033931 -0.03393,-0.033931 -0.03393,-0.082404 V 2.178457 q 0,-0.05332 0.03393,-0.087252 0.03393,-0.033931 0.0824,-0.033931 h 1.40572 q 0.392632,0 0.639845,0.1211828 0.247213,0.1163354 0.363548,0.3247698 0.121183,0.2084343 0.121183,0.484731 0,0.1841978 -0.06786,0.3247698 -0.06302,0.1357246 -0.159962,0.2229762 -0.0921,0.087252 -0.184197,0.1357247 0.189045,0.087252 0.334464,0.2908386 0.145419,0.203587 0.145419,0.484731 0,0.2908386 -0.130877,0.5186622 -0.130878,0.2278236 -0.387785,0.3587009 -0.256907,0.1260301 -0.634998,0.1260301 z m 0.557441,-0.5138149 h 0.8095 q 0.261755,0 0.39748,-0.140572 0.135725,-0.1454193 0.135725,-0.3490063 0,-0.2132816 -0.140572,-0.3538536 -0.135725,-0.140572 -0.392633,-0.140572 h -0.8095 z m 0,-1.4881242 h 0.761027 q 0.256908,0 0.382938,-0.1211827 0.130877,-0.1260301 0.130877,-0.3247698 0,-0.203587 -0.130877,-0.3199225 -0.12603,-0.1163354 -0.382938,-0.1163354 h -0.761027 z"
       style="font-weight:500;font-family:Rubik;-inkscape-font-specification:'Rubik Medium';fill:#ffd858;fill-opacity:1"
       id="path1452" /><path
       d="m 34.434478,5.4503913 q -0.04847,0 -0.08241,-0.033931 -0.03393,-0.033931 -0.03393,-0.087252 V 2.178457 q 0,-0.05332 0.03393,-0.087252 0.03393,-0.033931 0.08725,-0.033931 h 0.436258 q 0.05332,0 0.0824,0.033931 0.03393,0.033931 0.03393,0.087252 v 2.2249153 l 1.594765,-2.2685411 q 0.01939,-0.024236 0.05332,-0.048473 0.03393,-0.029084 0.08725,-0.029084 h 0.402327 q 0.04847,0 0.0824,0.033931 0.03393,0.033931 0.03393,0.087252 v 3.1555989 q 0,0.048473 -0.03393,0.082404 -0.03393,0.033931 -0.0824,0.033931 H 36.69331 q -0.05332,0 -0.08725,-0.033931 -0.03393,-0.033931 -0.03393,-0.082404 V 3.1527663 l -1.589917,2.220068 q -0.01454,0.019389 -0.04847,0.048473 -0.03393,0.029084 -0.0921,0.029084 z"
       style="font-weight:500;font-family:Rubik;-inkscape-font-specification:'Rubik Medium';fill:#ffd858;fill-opacity:1"
       id="path1454" /><path
       d="m 38.118424,5.4503913 q -0.04847,0 -0.0824,-0.029084 -0.03393,-0.033931 -0.03393,-0.087251 V 2.178457 q 0,-0.05332 0.03393,-0.087252 0.03393,-0.033931 0.0824,-0.033931 h 0.441105 q 0.05332,0 0.08241,0.033931 0.03393,0.033931 0.03393,0.087252 v 1.250606 h 1.429956 V 2.178457 q 0,-0.05332 0.03393,-0.087252 0.03393,-0.033931 0.0824,-0.033931 h 0.436258 q 0.05332,0 0.08725,0.033931 0.03393,0.033931 0.03393,0.087252 v 3.1555989 q 0,0.048473 -0.03393,0.082404 -0.03393,0.033931 -0.08725,0.033931 h -0.436258 q -0.04847,0 -0.0824,-0.033931 -0.03393,-0.033931 -0.03393,-0.082404 V 4.0349768 h -1.429956 v 1.2990791 q 0,0.048473 -0.03393,0.082404 -0.02908,0.033931 -0.08241,0.033931 z"
       style="font-weight:500;font-family:Rubik;-inkscape-font-specification:'Rubik Medium';fill:#ffd858;fill-opacity:1"
       id="path1456" /></g><path
     d="m 2.5266427,3.9530012 c 0.1101349,0.978977 1.0034514,1.8233447 2.0680889,1.8233447 1.150298,0 2.0925634,-0.978977 2.0925634,-2.0436145 V 3.7082569 C 5.4880481,3.5491732 3.982871,4.4180153 2.5266427,3.9530012"
     fill="#961623"
     id="path14174"
     style="stroke-width:0.122372" /><path
     d="m 7.2869184,3.7449686 c 0,-1.3950422 -0.6975211,-2.2516471 -0.6975211,-2.2516471 H 2.600066 c 0,0 -0.6975211,0.8688421 -0.6975211,2.2516471 0,1.3216189 1.1380607,2.5575774 2.5575774,2.6310007 C 4.4478851,7.1469137 4.3744618,7.9423325 4.1909036,8.2237884 3.9216849,8.6153792 2.9916568,8.4195838 2.9916568,8.835649 h 3.2061497 c 0,-0.4160652 -0.9300282,-0.2202698 -1.1992469,-0.6118606 C 4.8150014,7.9423325 4.7415782,7.1469137 4.729341,6.3759693 6.1488576,6.302546 7.2869184,5.0788247 7.2869184,3.7449686 M 4.5947316,6.0578017 c -1.1992468,0 -2.190461,-0.9545025 -2.3128331,-2.0436144 -0.012237,-0.073423 -0.012237,-0.1590838 -0.012237,-0.2325071 0,-1.211484 0.5996235,-1.9457168 0.5996235,-1.9457168 h 3.4508939 c 0,0 0.5873862,0.7342328 0.5996234,1.9212424 v 0.024474 c 0,1.1747724 -1.0401631,2.2761215 -2.3250704,2.2761215"
     opacity="0.8"
     fill="#a1b8c7"
     id="path14176"
     style="stroke-width:0.122372;fill:#8c94a8;fill-opacity:1" /></svg>
