<svg xmlns="http://www.w3.org/2000/svg" width="100" height="30" viewBox="0 0 26.458333 7.9375002"><g transform="matrix(0.18926 0 0 0.18926 -7.145 -31.873)" fill-rule="evenodd"><g transform="matrix(0.10238 0 0 0.10238 31.548 135.28)"><g fill="#e32233"><path d="m 132.78 525.61 c -20.76 -28.28 -20.838 -74.52 -0.197 -116.99 5.662 -11.65 15.943 -28.371 21.967 -35.729 3.707 -4.527 4.431 -4.918 8.161 -4.406 2.251 0.309 5.743 1.263 7.761 2.12 l 3.668 1.558 -11.975 18.798 c -24.856 39.02 -34.687 64.814 -34.66 90.94 0.011 10.209 3.07 27.891 6.697 38.705 1.83 5.455 3.182 10.07 3 10.256 -0.177 0.186 -2.169 -2.178 -4.427 -5.254 z" opacity="0.99"/><path d="m 109.3 692.22 c -21.729 -5.564 -24.598 -5.538 -27.24 0.25 -0.807 1.772 -2.05 2.71 -3.281 2.477 -2.723 -0.516 -3.268 -8.767 -0.884 -13.377 2 -3.874 3.223 -4.27 15.519 -5.04 4.753 -0.296 10.877 -1.208 13.609 -2.026 6.648 -1.992 15.378 -10.857 20.655 -20.972 9.718 -18.629 20.08 -60.926 22.17 -90.53 1.012 -14.294 2.427 -11.721 2.597 4.721 0.236 22.813 -3.482 45.644 -11.338 69.62 -5.7 17.398 -12.316 29.95 -20.606 39.1 -3.673 4.053 -6.672 7.743 -6.664 8.201 0.008 0.457 4.408 3.139 9.779 5.959 5.37 2.82 10.01 5.511 10.307 5.981 1.097 1.729 -5.181 0.616 -24.629 -4.364 z" opacity="0.99"/><path d="m 231.74 431.25 -5.696 -1.683 0.394 -20.726 c 0.216 -11.399 0.569 -20.908 0.783 -21.13 0.214 -0.222 3.37 0.589 7.01 1.803 5.659 1.886 6.727 2.69 7.342 5.53 0.945 4.366 1.188 33.95 0.298 36.27 -0.83 2.163 -2.63 2.152 -10.132 -0.065 z" opacity="0.99"/><path d="m 375.29 502.5 c -30.345 -3.166 -52.821 -18.963 -65.66 -46.15 -7.34 -15.54 -8.946 -24.763 -8.955 -51.43 -0.009 -26.894 -0.363 -26.02 12.06 -29.857 4.205 -1.299 7.816 -2.19 8.03 -1.981 0.209 0.209 -0.456 4.446 -1.479 9.416 -1.302 6.324 -1.874 15.188 -1.907 29.542 -0.055 23.749 1.56 31.848 9.654 48.42 9.446 19.341 28.3 33.446 53.957 40.36 10.733 2.893 9.484 3.261 -5.696 1.677 z" opacity="0.99"/><path d="m 420.3 386.27 c -7.288 -9.409 -22.777 -24.321 -32.2 -30.997 -7.17 -5.082 -7.225 -4.88 2.381 -8.666 l 5.985 -2.359 5.692 5.325 c 7.05 6.593 14.518 17.702 20.533 30.538 6.539 13.955 5.572 16.444 -2.394 6.159 z" opacity="0.99"/><path d="m 415.12 691.25 c -1.017 -1.552 -1.654 -4.43 -1.45 -6.551 0.313 -3.262 1.358 -4.411 7.589 -8.341 28.934 -18.247 29.09 -18.443 28.3 -34.749 -0.986 -20.16 -12.891 -58.21 -29.766 -95.13 -12.04 -26.339 -11.917 -26 -7.581 -21.08 8.131 9.239 23.655 45.08 35.774 82.6 7.298 22.592 9.332 33.636 8.481 46.05 l -0.615 8.967 3.444 0.689 c 1.894 0.379 5.205 0.689 7.357 0.689 7.835 0 4.518 1.563 -35.25 16.61 -11.07 4.19 -11.122 4.225 -11.823 8.609 -0.815 5.098 -1.918 5.503 -4.452 1.635 z" opacity="0.99"/></g><g fill="#fff"><path d="m 156.25 490.81 c -7.313 -19.01 -5.244 -39.18 6.302 -61.45 4.854 -9.359 6.325 -10.307 13.579 -8.746 8.12 1.747 9.29 2.702 7.24 5.913 -15.697 24.589 -20.637 37.848 -23.677 63.55 l -0.876 7.405 z" opacity="0.99"/><path d="m 209.31 538.22 c 20.856 -20.949 31.935 -38.37 40.02 -62.946 5.661 -17.197 6.907 -27 6.907 -54.34 0 -23.291 0.098 -24.391 2.119 -23.75 1.165 0.37 4.37 1.331 7.121 2.136 l 5 1.463 -0.289 19.872 c -0.159 10.93 -0.838 24.487 -1.509 30.13 -2.526 21.237 -9.09 41.731 -18.333 57.21 -5.333 8.936 -19.876 24.01 -29.683 30.775 -7.02 4.841 -23.553 13.98 -25.287 13.98 -0.293 0 5.974 -6.537 13.928 -14.526 z" opacity="0.99"/><path d="m 171.19 718.23 c 0.306 -1.097 0.883 -3.133 1.283 -4.525 0.592 -2.062 -1 -4.366 -8.601 -12.433 -11.944 -12.68 -13.914 -16.997 -14.491 -31.747 -0.548 -14.01 2.884 -32.29 10.379 -55.26 4.891 -14.988 13.152 -34.712 14.13 -33.734 0.268 0.268 -1.375 5.461 -3.652 11.54 -10.11 26.989 -15.946 55.805 -15.204 75.05 0.642 16.645 2.849 20.265 23.07 37.837 4.552 3.955 5.351 8.372 2.302 12.725 -2.303 3.288 -10.111 3.744 -9.217 0.538 z" opacity="0.99"/><path d="m 378.27 480.31 c -10.477 -2.818 -15.457 -5.631 -23.596 -13.329 -8.684 -8.213 -15 -17.678 -16.03 -24.02 -0.67 -4.126 -0.655 -4.144 6.03 -7.103 9.09 -4.02 14.1 -4.81 14.1 -2.209 0 2.676 8.233 18.808 13.728 26.9 2.467 3.633 8.08 9.56 12.468 13.172 4.391 3.612 7.983 6.978 7.983 7.479 0 1.416 -7.891 0.938 -14.687 -0.89 z" opacity="0.99"/><path d="m 429.47 490.97 c -0.031 -0.451 3.661 -5.577 8.204 -11.393 15.09 -19.311 20.223 -32.34 20.223 -51.29 0 -26.19 -12.19 -51.918 -36.01 -76.01 -6.473 -6.548 -11.658 -11.985 -11.522 -12.08 0.136 -0.098 2.739 -1.01 5.785 -2.025 l 5.538 -1.848 7.745 6.883 c 14.531 12.914 29.19 36.994 34.26 56.3 1.735 6.596 2.435 12.892 2.533 22.786 0.174 17.616 -2.157 25.625 -11.607 39.881 -6.087 9.183 -25.02 30.851 -25.16 28.797 z" opacity="0.99"/><path d="m 528.28 648.48 c -2.548 -2.766 -2.716 -2.848 -5.811 -2.848 -1.753 0 -8.433 0.897 -14.846 1.994 -6.413 1.097 -13.24 1.994 -15.172 1.994 -11.02 0 -17.466 -5.621 -25.8 -22.501 -9.533 -19.31 -24.95 -59.26 -32.769 -84.92 -3.748 -12.297 -8.636 -31.437 -8.417 -32.958 0.2 -1.392 8.672 22.22 11.802 32.897 5.067 17.284 21.11 58.16 30.33 77.29 7.473 15.503 11.377 20.796 17.284 23.433 3.846 1.717 11.11 1.622 23.925 -0.314 13.85 -2.091 19.305 -1.861 22.342 0.944 2.574 2.377 3.133 7.837 0.803 7.837 -0.574 0 -2.224 -1.282 -3.667 -2.848 z" opacity="0.99"/></g></g><g transform="matrix(0.54722 0 0 0.54722 75.21 91.58)" fill="#e32233" stroke="#fff" stroke-linecap="round" stroke-dashoffset="5.707"><path d="m 113.75 191.91 c -1.393 -0.969 -2.603 -3.362 -2.607 -5.158 -0.002 -0.686 0.539 -5.206 1.201 -10.05 0.781 -5.706 1.109 -8.977 0.932 -9.307 -0.15 -0.279 -0.551 -0.76 -0.891 -1.069 -0.341 -0.308 -0.769 -1.014 -0.952 -1.567 -0.721 -2.185 1.697 -5.318 5.589 -7.242 1.568 -0.775 2.63 -1.094 3.754 -1.127 1.392 -0.042 1.654 0.053 2.336 0.846 0.731 0.849 0.76 1.019 0.594 3.467 -0.096 1.416 -0.657 6.04 -1.246 10.287 -0.589 4.242 -1.105 8.583 -1.147 9.646 -0.072 1.824 -0.036 1.938 0.631 2.033 1.036 0.147 2.228 -0.442 3.47 -1.713 l 1.097 -1.123 1.056 -7.141 c 0.581 -3.927 1.055 -7.517 1.054 -7.976 -0.001 -0.612 -0.244 -0.973 -0.904 -1.349 -0.91 -0.518 -1.063 -0.982 -0.924 -2.802 0.229 -3.01 5.333 -7.385 8.621 -7.385 0.721 0 1.855 0.308 2.692 0.732 1.73 0.876 1.882 0.834 5.207 -1.43 2.541 -1.73 5.03 -2.576 6.507 -2.206 1.17 0.294 2.499 1.566 3.035 2.904 1.129 2.821 0.969 6.522 -0.741 17.16 -0.572 3.561 -0.789 5.66 -0.603 5.846 0.341 0.341 3.078 -0.943 4.268 -2 0.714 -0.636 0.796 -0.959 0.974 -3.841 0.396 -6.416 2.309 -13.879 4.615 -18 1.666 -2.98 4.308 -5.597 6.989 -6.922 2.103 -1.04 2.487 -1.128 4.863 -1.125 3.275 0.004 5.181 0.787 7.093 2.915 3.973 4.419 3.97 13.5 -0.006 21.905 -4.965 10.496 -12.904 14.532 -20.736 10.543 l -1.156 -0.589 -1.557 1.465 c -4.467 4.205 -10.143 6.46 -12.802 5.085 -1.979 -1.023 -2.917 -4.641 -2.436 -9.389 0.15 -1.483 0.336 -2.901 0.413 -3.15 0.141 -0.458 1.365 -10.1 1.356 -10.685 -0.002 -0.175 -0.125 -0.509 -0.273 -0.742 -0.216 -0.341 -0.568 -0.204 -1.799 0.7 -2.551 1.872 -2.577 1.944 -3.637 9.825 -0.524 3.894 -1.269 8.55 -1.655 10.345 -0.82 3.804 -1.52 4.89 -4.093 6.35 -1.545 0.876 -1.845 0.936 -4.694 0.936 -1.916 0 -3.204 0.133 -3.477 0.36 -0.239 0.198 -1.311 0.797 -2.383 1.332 -1.538 0.767 -2.425 0.997 -4.209 1.094 -2.064 0.112 -2.361 0.052 -3.419 -0.683 z m 57.35 -20.775 c 0.55 -0.406 1.32 -1.209 1.712 -1.786 2.449 -3.604 4.168 -11.737 3.045 -14.409 -0.666 -1.586 -1.685 -2.18 -3.079 -1.795 -1.819 0.502 -3.05 1.683 -4.208 4.04 -3 6.102 -2.475 14.691 0.902 14.691 0.345 0 1.078 -0.332 1.627 -0.737 z" opacity="0.99" stroke-width="1.5"/><path d="m 117.12 154.37 c -1.025 -0.598 -1.8 -2.325 -1.8 -4.01 0 -1.951 0.53 -3.319 1.885 -4.861 1.712 -1.95 4.17 -2.514 6.276 -1.44 1.519 0.774 2.157 1.833 2.343 3.888 0.261 2.873 -1.17 5 -4.212 6.276 -1.235 0.516 -3.721 0.599 -4.492 0.149 z" opacity="0.99" stroke-width="1.509"/><path d="m 37.05 207.17 c -6.228 -2.151 -10.251 -9.01 -10.811 -18.421 -0.711 -11.956 4.471 -23.718 13.408 -30.438 4.276 -3.215 9.576 -4.48 12.55 -2.994 2.874 1.435 4.504 4.224 4.489 7.676 -0.015 3.498 -1.807 6.679 -4.495 7.98 -1.881 0.911 -3.03 0.642 -5 -1.172 l -1.567 -1.441 1.109 -1.797 c 1.356 -2.197 1.801 -3.603 1.386 -4.379 -0.421 -0.786 -1.148 -0.706 -2.709 0.297 -1.681 1.081 -2.38 1.847 -3.718 4.073 -1.957 3.256 -3.2 7.933 -3.817 14.357 -0.939 9.78 1.479 16.412 6.368 17.46 2.375 0.509 5.989 -0.442 8.988 -2.367 l 1.455 -0.934 0.207 -2.784 c 0.96 -12.925 6.405 -22.585 14.07 -24.972 1.283 -0.399 2.737 -0.571 4.835 -0.571 2.774 0 3.137 -0.071 4.812 -0.943 2.01 -1.048 4.073 -1.413 5.04 -0.895 1.632 0.874 1.529 4.476 -0.442 15.331 -1.178 6.491 -1.447 10.464 -0.737 10.905 1.078 0.67 2.253 -0.477 3.02 -2.948 0.763 -2.457 2.29 -4.591 3.796 -5.306 1.374 -0.652 4.206 -0.538 5.357 0.216 l 0.765 0.501 -0.578 1.52 c -0.585 1.54 -0.757 3.779 -0.341 4.434 0.125 0.197 0.582 0.493 1.016 0.658 1.717 0.653 4.776 -1.97 4.776 -4.095 0 -1.154 -0.887 -1.952 -4.139 -3.726 -5.601 -3.056 -6.531 -4.335 -6.55 -9.02 -0.011 -2.698 0.053 -3 1.115 -5.225 1.458 -3.053 4.059 -5.711 7 -7.157 1.775 -0.871 2.493 -1.049 4.605 -1.139 2.218 -0.095 2.687 -0.016 4.131 0.69 2.164 1.059 3.179 2.938 3.176 5.881 -0.002 2.74 -0.474 4.18 -1.805 5.511 -1.115 1.115 -1.183 1.137 -3.414 1.137 -1.252 0 -2.63 -0.134 -3.062 -0.299 -0.701 -0.267 -0.747 -0.371 -0.425 -0.973 1.13 -2.111 0.846 -4.155 -0.578 -4.155 -1.779 0 -2.9 2.309 -2.078 4.277 0.466 1.115 1.682 2.01 6.215 4.561 1.231 0.693 2.655 1.782 3.165 2.418 0.884 1.104 0.927 1.287 0.927 3.933 0 2.621 -0.066 2.908 -1.184 5.172 -1.572 3.183 -5.068 6.723 -8.311 8.416 -1.969 1.028 -2.581 1.197 -4.741 1.311 -2.533 0.134 -4.485 -0.182 -6.476 -1.046 l -1.119 -0.486 -1.645 1.503 c -3.559 3.253 -6.541 3.772 -10.48 1.825 l -2.274 -1.124 -1.405 1.346 c -0.773 0.74 -2.252 1.788 -3.287 2.329 -1.759 0.918 -2.081 0.983 -4.897 0.983 -2.825 0.001 -3.125 -0.06 -4.774 -0.964 l -1.76 -0.965 -2.159 1.647 c -2.544 1.941 -6.261 3.843 -8.779 4.492 -2.454 0.633 -6.238 0.584 -8.237 -0.107 z m 33.23 -14.654 c 3.096 -3.01 5.253 -11.268 4.392 -16.816 -0.183 -1.181 -0.395 -2.209 -0.47 -2.284 -0.075 -0.075 -0.71 0.036 -1.411 0.246 -3.823 1.146 -9.606 10.798 -9.574 15.98 0.018 2.923 2.394 5.152 4.728 4.436 0.585 -0.18 1.636 -0.882 2.335 -1.562 z" opacity="0.99" stroke-width="1.5"/></g><g transform="matrix(0.76582 0 0 0.40618 72.72 109.23)" fill="#fff" stroke="#e32233" stroke-linecap="round" stroke-width="1.2" stroke-dashoffset="5.707"><path d="m 100.2 244.95 c -0.247 -0.059 -0.543 -0.261 -0.682 -0.463 -0.069 -0.101 -0.164 -0.304 -0.21 -0.452 l -0.084 -0.269 l 0 -7.856 c 0 -7.505 0.003 -7.867 0.069 -8.101 0.15 -0.531 0.403 -0.858 0.812 -1.05 0.193 -0.091 0.253 -0.099 0.683 -0.099 0.43 0 0.489 0.009 0.683 0.099 0.418 0.196 0.64 0.485 0.796 1.038 l 0.083 0.295 0.019 5.644 0.019 5.644 0.903 -1.235 c 1.909 -2.612 4.492 -6.184 6.849 -9.471 0.969 -1.352 1.222 -1.627 1.709 -1.868 0.29 -0.143 0.3 -0.145 0.73 -0.145 0.363 0 0.464 0.013 0.607 0.079 0.358 0.166 0.584 0.449 0.73 0.915 0.078 0.249 0.078 0.276 0.088 7.954 0.011 8.283 0.017 8.01 -0.178 8.526 -0.114 0.302 -0.388 0.591 -0.685 0.725 -0.284 0.128 -0.773 0.17 -1.092 0.095 -0.57 -0.134 -0.881 -0.456 -1.077 -1.114 -0.062 -0.208 -0.068 -0.611 -0.086 -5.906 l -0.019 -5.682 -4.277 5.924 c -2.352 3.258 -4.37 6.02 -4.484 6.137 -0.257 0.265 -0.556 0.465 -0.849 0.569 -0.256 0.091 -0.811 0.127 -1.057 0.068 z" opacity="0.99" paint-order="fill markers stroke"/><path d="m 119.42 244.94 c -0.511 -0.124 -0.84 -0.485 -1.02 -1.118 -0.066 -0.231 -0.069 -0.606 -0.069 -8 0 -7.398 0.003 -7.773 0.069 -8 0.147 -0.517 0.409 -0.871 0.774 -1.044 0.171 -0.081 0.284 -0.104 0.582 -0.119 0.461 -0.023 0.784 0.055 1.037 0.248 0.227 0.173 0.285 0.245 0.42 0.516 0.237 0.476 0.236 0.461 0.254 3.683 l 0.016 2.93 l 3.841 0 3.841 0 l 0 -2.879 c 0 -3.069 0.005 -3.162 0.188 -3.649 0.107 -0.285 0.392 -0.596 0.672 -0.733 0.2 -0.098 0.247 -0.105 0.686 -0.105 0.458 -0.001 0.479 0.003 0.724 0.124 0.392 0.193 0.607 0.493 0.761 1.063 0.076 0.279 0.077 0.383 0.089 7.724 0.012 7.507 0.006 7.908 -0.121 8.332 -0.144 0.48 -0.435 0.834 -0.804 0.98 -0.179 0.071 -0.29 0.086 -0.649 0.087 -0.4 0.002 -0.452 -0.007 -0.668 -0.107 -0.269 -0.124 -0.543 -0.393 -0.652 -0.639 -0.211 -0.476 -0.203 -0.333 -0.224 -3.981 l -0.02 -3.372 -3.832 -0.01 -3.832 -0.01 -0.015 3.307 c -0.013 2.895 -0.022 3.339 -0.076 3.564 -0.205 0.859 -0.715 1.277 -1.545 1.265 -0.129 -0.002 -0.32 -0.024 -0.426 -0.05 z" opacity="0.99" paint-order="fill markers stroke"/><path d="m 84.91 244.77 c -0.552 -0.067 -0.984 -0.273 -1.178 -0.56 -0.138 -0.204 -0.234 -0.512 -0.277 -0.881 -0.027 -0.237 -0.036 -2.685 -0.027 -7.658 0.011 -6.763 0.017 -7.328 0.077 -7.546 0.184 -0.672 0.554 -1.05 1.214 -1.239 0.198 -0.057 0.481 -0.067 2.298 -0.079 2.204 -0.016 2.885 0.012 3.54 0.145 0.777 0.157 1.502 0.452 2.111 0.858 0.75 0.5 1.21 0.995 1.527 1.645 0.267 0.547 0.34 0.862 0.365 1.571 0.052 1.464 -0.31 2.574 -1.09 3.34 -0.3 0.295 -0.625 0.524 -0.948 0.668 -0.136 0.061 -0.242 0.125 -0.237 0.143 0.005 0.018 0.184 0.089 0.396 0.159 0.829 0.271 1.389 0.602 1.909 1.127 0.535 0.54 0.857 1.169 1.024 2 0.093 0.464 0.093 1.625 -0.001 2.105 -0.297 1.522 -1.097 2.633 -2.455 3.407 -0.62 0.353 -1.337 0.589 -2.261 0.744 -0.323 0.054 -0.759 0.064 -3.052 0.072 -1.471 0.005 -2.793 -0.005 -2.937 -0.022 z m 4.971 -2.713 c 1.36 -0.154 2.208 -0.769 2.495 -1.81 0.094 -0.342 0.094 -1.344 -0.001 -1.693 -0.218 -0.804 -0.718 -1.353 -1.496 -1.644 -0.59 -0.22 -0.859 -0.247 -2.666 -0.268 l -1.63 -0.019 l 0 2.736 0 2.736 l 1.479 0 c 0.813 0 1.632 -0.018 1.818 -0.039 z m -0.368 -7.968 c 1.287 -0.209 1.895 -0.938 1.902 -2.279 0.006 -1.2 -0.489 -1.902 -1.547 -2.195 -0.266 -0.073 -0.405 -0.081 -1.786 -0.095 l -1.498 -0.015 l 0 2.32 0 2.32 l 1.291 0 c 0.965 0 1.378 -0.014 1.638 -0.057 z" opacity="0.99" paint-order="fill markers stroke"/></g></g></svg>